<?xml version="1.0" encoding="utf-8"?>
<!-- Generator: Adobe Illustrator 29.1.0, SVG Export Plug-In . SVG Version: 9.03 Build 55587)  -->
<svg version="1.0" id="Réteg_1" xmlns="http://www.w3.org/2000/svg" xmlns:xlink="http://www.w3.org/1999/xlink" x="0px" y="0px"
	 viewBox="0 0 90.6 16" style="enable-background:new 0 0 90.6 16;" xml:space="preserve">
<style type="text/css">
	.st0{fill:#00A680;}
</style>
<circle class="st0" cx="8" cy="8" r="4.1"/>
<path class="st0" d="M8,15.9c-4.4,0-7.9-3.5-7.9-7.9S3.6,0.1,8,0.1s7.9,3.5,7.9,7.9S12.4,15.9,8,15.9z M8,1.6C4.5,1.6,1.6,4.5,1.6,8
	s2.9,6.4,6.4,6.4s6.4-2.9,6.4-6.4S11.5,1.6,8,1.6z"/>
<circle class="st0" cx="26.7" cy="8" r="4.1"/>
<path class="st0" d="M26.7,15.9c-4.4,0-7.9-3.5-7.9-7.9s3.5-7.9,7.9-7.9s7.9,3.5,7.9,7.9S31.1,15.9,26.7,15.9z M26.7,1.6
	c-3.5,0-6.4,2.9-6.4,6.4s2.9,6.4,6.4,6.4s6.4-2.9,6.4-6.4S30.2,1.6,26.7,1.6z"/>
<circle class="st0" cx="45.3" cy="8" r="4.1"/>
<path class="st0" d="M45.3,15.9c-4.4,0-7.9-3.5-7.9-7.9s3.5-7.9,7.9-7.9s7.9,3.5,7.9,7.9S49.7,15.9,45.3,15.9z M45.3,1.6
	c-3.5,0-6.4,2.9-6.4,6.4s2.9,6.4,6.4,6.4s6.4-2.9,6.4-6.4S48.8,1.6,45.3,1.6z"/>
<circle class="st0" cx="64" cy="8" r="4.1"/>
<path class="st0" d="M64,15.9c-4.4,0-7.9-3.5-7.9-7.9s3.5-7.9,7.9-7.9s7.9,3.5,7.9,7.9S68.4,15.9,64,15.9z M64,1.6
	c-3.5,0-6.4,2.9-6.4,6.4s2.9,6.4,6.4,6.4s6.4-2.9,6.4-6.4S67.5,1.6,64,1.6z"/>
<circle class="st0" cx="82.7" cy="8" r="4.1"/>
<path class="st0" d="M82.7,15.9c-4.4,0-7.9-3.5-7.9-7.9s3.5-7.9,7.9-7.9c4.4,0,7.9,3.5,7.9,7.9S87.1,15.9,82.7,15.9z M82.7,1.6
	c-3.5,0-6.4,2.9-6.4,6.4s2.9,6.4,6.4,6.4s6.4-2.9,6.4-6.4S86.2,1.6,82.7,1.6z"/>
</svg>
